<svg width="20" height="20" viewBox="0 0 20 20" fill="none" xmlns="http://www.w3.org/2000/svg">
<path d="M4.66699 13.333V9.33301C4.66699 8.80257 4.87771 8.29387 5.25278 7.91879C5.62785 7.54372 6.13656 7.33301 6.66699 7.33301C7.19743 7.33301 7.70613 7.54372 8.08121 7.91879C8.45628 8.29387 8.66699 8.80257 8.66699 9.33301V13.333M15.3337 6.66634V13.333M15.3337 9.99967H12.667C12.3134 9.99967 11.9742 10.1402 11.7242 10.3902C11.4741 10.6402 11.3337 10.9794 11.3337 11.333C11.3337 11.6866 11.4741 12.0258 11.7242 12.2758C11.9742 12.5259 12.3134 12.6663 12.667 12.6663H15.3337M4.66699 11.333H8.66699M3.33366 3.33301H16.667C17.3742 3.33301 18.0525 3.61396 18.5526 4.11406C19.0527 4.61415 19.3337 5.29243 19.3337 5.99967V13.9997C19.3337 14.7069 19.0527 15.3852 18.5526 15.8853C18.0525 16.3854 17.3742 16.6663 16.667 16.6663H3.33366C2.62641 16.6663 1.94814 16.3854 1.44804 15.8853C0.947944 15.3852 0.666992 14.7069 0.666992 13.9997V5.99967C0.666992 5.29243 0.947944 4.61415 1.44804 4.11406C1.94814 3.61396 2.62641 3.33301 3.33366 3.33301Z" stroke="#7C6C80" stroke-width="1.33333"/>
</svg>
